<svg width="22" height="22" viewBox="0 0 22 22" fill="none" xmlns="http://www.w3.org/2000/svg">
<path d="M18.4571 7.81868C18.336 7.90869 16.1976 9.06281 16.1976 11.6291C16.1976 14.5974 18.9186 15.6475 19 15.6735C18.9875 15.7375 18.5677 17.1116 17.5654 18.5118C16.6717 19.7439 15.7382 20.974 14.3183 20.974C12.8983 20.974 12.5329 20.1839 10.8936 20.1839C9.29615 20.1839 8.72817 21 7.42931 21C6.13045 21 5.22417 19.8599 4.18216 18.4597C2.97519 16.8156 2 14.2613 2 11.8371C2 7.94869 4.63948 5.88649 7.23719 5.88649C8.61749 5.88649 9.76809 6.75458 10.6347 6.75458C11.4595 6.75458 12.7459 5.83448 14.3162 5.83448C14.9113 5.83448 17.0496 5.88649 18.4571 7.81868ZM13.5707 4.18832C14.2201 3.45024 14.6795 2.42614 14.6795 1.40204C14.6795 1.26003 14.667 1.11601 14.6398 1C13.5832 1.038 12.3261 1.67407 11.5681 2.51615C10.973 3.16422 10.4175 4.18832 10.4175 5.22642C10.4175 5.38244 10.4447 5.53845 10.4572 5.58846C10.524 5.60046 10.6326 5.61446 10.7412 5.61446C11.6892 5.61446 12.8816 5.0064 13.5707 4.18832Z" fill="white"/>
</svg>
