<svg width="22" height="22" viewBox="0 0 22 22" fill="none" xmlns="http://www.w3.org/2000/svg">
<path d="M20.8055 9.0415H20V9H11V13H16.6515C15.827 15.3285 13.6115 17 11 17C7.6865 17 5 14.3135 5 11C5 7.6865 7.6865 5 11 5C12.5295 5 13.921 5.577 14.9805 6.5195L17.809 3.691C16.023 2.0265 13.634 1 11 1C5.4775 1 1 5.4775 1 11C1 16.5225 5.4775 21 11 21C16.5225 21 21 16.5225 21 11C21 10.3295 20.931 9.675 20.8055 9.0415Z" fill="#FFC107"/>
<path d="M2.15308 6.3455L5.43858 8.755C6.32758 6.554 8.48058 5 11.0001 5C12.5296 5 13.9211 5.577 14.9806 6.5195L17.8091 3.691C16.0231 2.0265 13.6341 1 11.0001 1C7.15908 1 3.82808 3.1685 2.15308 6.3455Z" fill="#FF3D00"/>
<path d="M10.9999 21.0001C13.5829 21.0001 15.9299 20.0116 17.7044 18.4041L14.6094 15.7851C13.5717 16.5743 12.3036 17.0011 10.9999 17.0001C8.39891 17.0001 6.19041 15.3416 5.35841 13.0271L2.09741 15.5396C3.75241 18.7781 7.11341 21.0001 10.9999 21.0001Z" fill="#4CAF50"/>
<path d="M20.8055 9.0415H20V9H11V13H16.6515C16.2571 14.1082 15.5467 15.0766 14.608 15.7855L14.6095 15.7845L17.7045 18.4035C17.4855 18.6025 21 16 21 11C21 10.3295 20.931 9.675 20.8055 9.0415Z" fill="#1976D2"/>
</svg>
