<svg width="48" height="48" viewBox="0 0 48 48" fill="none" xmlns="http://www.w3.org/2000/svg">
<path d="M14.6042 29.946C14.295 31.0552 14.1042 34.7577 15.6892 37.1469C17.225 39.461 18.7009 40.9452 22.9884 41.3394C27.2234 41.7285 29.39 40.096 30.0317 39.5535C30.6734 39.011 32.415 37.5635 33.1534 35.1402C33.7142 33.2994 34.2 29.5202 32.2434 26.7852C30.685 24.606 29.5142 23.7827 27.845 23.1135C27.2475 22.8744 22.9884 21.5618 19.3875 23.5835C15.7867 25.6052 15.1959 27.8252 14.6042 29.946Z" fill="#EFA428"/>
<path d="M17.1568 29.456C16.3551 32.1377 16.7876 34.9469 18.5092 36.9327C20.2309 38.9194 22.7476 39.2219 24.9568 39.1494C27.8026 39.0569 30.1876 37.0344 30.8501 34.5844C31.5126 32.1344 31.4184 28.2727 28.2851 26.0919C25.9859 24.491 23.0401 24.6144 21.3967 25.1277C20.0442 25.5502 17.9009 26.9669 17.1568 29.456Z" fill="#F5C96E"/>
<path d="M13.7924 7.72095H18.2966C18.5341 7.72095 18.7541 7.84761 18.8733 8.05261L26.0816 20.7226C26.2108 20.9451 26.0499 21.2234 25.7933 21.2234H19.9416C19.6924 21.2234 19.4633 21.0843 19.3491 20.8626L13.1999 8.69344C12.9708 8.25011 13.2933 7.72095 13.7924 7.72095Z" fill="#EFA428"/>
<path d="M29.4267 8.08167L23.0092 20.7375C22.8942 20.9592 23.0559 21.2242 23.3051 21.2242H28.19C28.4375 21.2242 28.665 21.0867 28.78 20.8675L35.0475 8.69837C35.2809 8.2542 34.9592 7.72168 34.4576 7.72168H30.0184C29.7692 7.72085 29.5409 7.86 29.4267 8.08167Z" fill="#EFA428"/>
<path d="M15.9024 7.72095L22.7574 21.2234H19.9416C19.6924 21.2234 19.4633 21.0843 19.3491 20.8626L13.1999 8.69344C12.9708 8.25011 13.2933 7.72095 13.7924 7.72095H15.9024Z" fill="#F5C96E"/>
<path d="M34.4575 7.72095H32.6717L25.76 21.2234H28.19C28.4375 21.2234 28.665 21.0859 28.78 20.8668L35.0475 8.69759C35.2808 8.25426 34.9592 7.72095 34.4575 7.72095Z" fill="#F5C96E"/>
<path d="M22.9269 28.3358C23.1122 27.8453 23.4669 27.6001 23.9908 27.6001C24.3455 27.6001 24.6357 27.7029 24.8614 27.9086C25.0871 28.1064 25.1999 28.4031 25.1999 28.7986V37.2001H22.7818V31.2787H21.6452C21.3067 31.2787 21.0125 31.1956 20.7626 31.0295C20.5208 30.8634 20.3999 30.6142 20.3999 30.2819C20.3999 30.005 20.4845 29.7835 20.6538 29.6174C20.8231 29.4513 21.0286 29.3524 21.2704 29.3207C21.6573 29.2733 21.9999 29.1783 22.2981 29.0359C22.6044 28.8856 22.814 28.6523 22.9269 28.3358Z" fill="white"/>
</svg>
