<svg width="48" height="48" viewBox="0 0 48 48" fill="none" xmlns="http://www.w3.org/2000/svg">
<path d="M14.6042 29.946C14.295 31.0552 14.1042 34.7577 15.6892 37.1469C17.225 39.461 18.7009 40.9452 22.9884 41.3394C27.2234 41.7285 29.39 40.096 30.0317 39.5535C30.6734 39.011 32.415 37.5635 33.1534 35.1402C33.7142 33.2994 34.2 29.5202 32.2434 26.7852C30.685 24.606 29.5142 23.7827 27.845 23.1135C27.2475 22.8744 22.9884 21.5618 19.3875 23.5835C15.7867 25.6052 15.1959 27.8252 14.6042 29.946Z" fill="#9ED1FF"/>
<path d="M17.1568 29.456C16.3551 32.1377 16.7876 34.9469 18.5092 36.9327C20.2309 38.9194 22.7476 39.2219 24.9568 39.1494C27.8026 39.0569 30.1876 37.0344 30.8501 34.5844C31.5126 32.1344 31.4184 28.2727 28.2851 26.0919C25.9859 24.491 23.0401 24.6144 21.3967 25.1277C20.0442 25.5502 17.9009 26.9669 17.1568 29.456Z" fill="#5380F5"/>
<path d="M13.7924 7.72095H18.2966C18.5341 7.72095 18.7541 7.84761 18.8733 8.05261L26.0816 20.7226C26.2108 20.9451 26.0499 21.2234 25.7933 21.2234H19.9416C19.6924 21.2234 19.4633 21.0843 19.3491 20.8626L13.1999 8.69344C12.9708 8.25011 13.2933 7.72095 13.7924 7.72095Z" fill="#9ED1FF"/>
<path d="M29.4267 8.08167L23.0092 20.7375C22.8942 20.9592 23.0559 21.2242 23.3051 21.2242H28.19C28.4375 21.2242 28.665 21.0867 28.78 20.8675L35.0475 8.69837C35.2809 8.2542 34.9592 7.72168 34.4576 7.72168H30.0184C29.7692 7.72085 29.5409 7.86 29.4267 8.08167Z" fill="#9ED1FF"/>
<path d="M15.9024 7.72095L22.7574 21.2234H19.9416C19.6924 21.2234 19.4633 21.0843 19.3491 20.8626L13.1999 8.69344C12.9708 8.25011 13.2933 7.72095 13.7924 7.72095H15.9024Z" fill="#5380F5"/>
<path d="M34.4575 7.72095H32.6717L25.76 21.2234H28.19C28.4375 21.2234 28.665 21.0859 28.78 20.8668L35.0475 8.69759C35.2808 8.25426 34.9592 7.72095 34.4575 7.72095Z" fill="#5380F5"/>
<path d="M21.7932 37.2001C21.3662 37.2001 21.0254 37.0814 20.7707 36.8441C20.5235 36.5989 20.3999 36.2508 20.3999 35.7999V35.6693C20.3999 35.2738 20.4224 34.9257 20.4673 34.6251C20.5123 34.3165 20.5872 34.0436 20.692 33.8063C20.8044 33.561 20.9505 33.3395 21.1302 33.1418C21.31 32.944 21.531 32.7502 21.7932 32.5603L23.5572 31.3262C23.737 31.1996 23.8568 31.0612 23.9168 30.9109C23.9842 30.7605 24.0179 30.6142 24.0179 30.4718C24.0179 30.274 23.943 30.1079 23.7932 29.9734C23.6508 29.831 23.4523 29.7598 23.1977 29.7598C23.0254 29.7598 22.8718 29.7994 22.737 29.8785C22.6096 29.9497 22.4823 30.0406 22.355 30.1514C22.295 30.2068 22.2201 30.2661 22.1302 30.3294C22.0478 30.3927 21.9542 30.4401 21.8493 30.4718C21.6771 30.5193 21.4898 30.5351 21.2875 30.5193C21.0853 30.5034 20.9018 30.4243 20.737 30.2819C20.5347 30.1079 20.4261 29.8824 20.4111 29.6055C20.4036 29.3287 20.4711 29.0795 20.6134 28.8579C20.7482 28.6364 20.9168 28.4466 21.119 28.2884C21.3287 28.1301 21.5497 27.9996 21.7819 27.8968C22.0216 27.7939 22.2651 27.7188 22.5123 27.6713C22.7669 27.6238 23.0141 27.6001 23.2538 27.6001C23.6808 27.6001 24.0778 27.6594 24.4448 27.7781C24.8194 27.8888 25.1415 28.055 25.4111 28.2765C25.6883 28.498 25.9055 28.767 26.0628 29.0834C26.2276 29.3999 26.31 29.7638 26.31 30.1751C26.31 30.8159 26.2014 31.3499 25.9842 31.7771C25.7744 32.1964 25.4374 32.5643 24.9729 32.8807L23.5797 33.8181C23.295 34.0159 23.089 34.19 22.9617 34.3403C22.8344 34.4827 22.7707 34.6646 22.7707 34.8861V34.9692C22.7707 35.0879 22.8269 35.1472 22.9392 35.1472H26.3999V37.2001H21.7932Z" fill="white"/>
</svg>
