<svg width="48" height="48" viewBox="0 0 48 48" fill="none" xmlns="http://www.w3.org/2000/svg">
<path d="M14.6042 29.946C14.295 31.0552 14.1042 34.7577 15.6892 37.1469C17.225 39.461 18.7009 40.9452 22.9884 41.3394C27.2234 41.7285 29.39 40.096 30.0317 39.5535C30.6734 39.011 32.415 37.5635 33.1534 35.1402C33.7142 33.2994 34.2 29.5202 32.2434 26.7852C30.685 24.606 29.5142 23.7827 27.845 23.1135C27.2475 22.8744 22.9884 21.5618 19.3875 23.5835C15.7867 25.6052 15.1959 27.8252 14.6042 29.946Z" fill="#CDC5C3"/>
<path d="M17.1568 29.456C16.3551 32.1377 16.7876 34.9469 18.5092 36.9327C20.2309 38.9194 22.7476 39.2219 24.9568 39.1494C27.8026 39.0569 30.1876 37.0344 30.8501 34.5844C31.5126 32.1344 31.4184 28.2727 28.2851 26.0919C25.9859 24.491 23.0401 24.6144 21.3967 25.1277C20.0442 25.5502 17.9009 26.9669 17.1568 29.456Z" fill="#ABABAB"/>
<path d="M13.7924 7.72095H18.2966C18.5341 7.72095 18.7541 7.84761 18.8733 8.05261L26.0816 20.7226C26.2108 20.9451 26.0499 21.2234 25.7933 21.2234H19.9416C19.6924 21.2234 19.4633 21.0843 19.3491 20.8626L13.1999 8.69344C12.9708 8.25011 13.2933 7.72095 13.7924 7.72095Z" fill="#CDC5C3"/>
<path d="M29.4267 8.08167L23.0092 20.7375C22.8942 20.9592 23.0559 21.2242 23.3051 21.2242H28.19C28.4375 21.2242 28.665 21.0867 28.78 20.8675L35.0475 8.69837C35.2809 8.2542 34.9592 7.72168 34.4576 7.72168H30.0184C29.7692 7.72085 29.5409 7.86 29.4267 8.08167Z" fill="#CDC5C3"/>
<path d="M15.9024 7.72095L22.7574 21.2234H19.9416C19.6924 21.2234 19.4633 21.0843 19.3491 20.8626L13.1999 8.69344C12.9708 8.25011 13.2933 7.72095 13.7924 7.72095H15.9024Z" fill="#ABABAB"/>
<path d="M34.4575 7.72095H32.6717L25.76 21.2234H28.19C28.4375 21.2234 28.665 21.0859 28.78 20.8668L35.0475 8.69759C35.2808 8.25426 34.9592 7.72095 34.4575 7.72095Z" fill="#ABABAB"/>
<path d="M27.5999 34.0508C27.5999 34.5503 27.4968 34.9952 27.2905 35.3855C27.0932 35.7757 26.8196 36.1074 26.4698 36.3806C26.129 36.646 25.7254 36.8489 25.259 36.9894C24.8016 37.1299 24.3173 37.2001 23.8061 37.2001C23.5101 37.2001 23.2051 37.1806 22.8912 37.1416C22.5863 37.1103 22.2903 37.0557 22.0033 36.9777C21.7253 36.8996 21.4696 36.7942 21.2365 36.6616C21.0033 36.5289 20.8059 36.3689 20.6445 36.1816C20.4651 35.963 20.3844 35.7172 20.4023 35.444C20.4293 35.1708 20.5593 34.9445 20.7925 34.765C20.9808 34.6167 21.1961 34.5347 21.4383 34.5191C21.6804 34.5035 21.9046 34.5191 22.1109 34.566C22.2365 34.5972 22.3486 34.6479 22.4473 34.7181C22.5549 34.7884 22.6446 34.843 22.7163 34.882C22.8688 34.9679 23.0258 35.0225 23.1872 35.046C23.3576 35.0616 23.546 35.0694 23.7522 35.0694C24.0931 35.0694 24.3801 34.9679 24.6133 34.765C24.8464 34.562 24.963 34.3006 24.963 33.9806C24.963 33.8089 24.9182 33.6606 24.8285 33.5357C24.7478 33.403 24.6312 33.2938 24.4787 33.2079C24.3352 33.1142 24.1648 33.044 23.9675 32.9972C23.7791 32.9503 23.5729 32.9269 23.3486 32.9269H22.7029C22.5056 32.9269 22.3217 32.8645 22.1513 32.7396C21.9898 32.6147 21.8867 32.4703 21.8419 32.3064C21.7791 32.0957 21.7791 31.9006 21.8419 31.7211C21.9046 31.5338 22.0526 31.3503 22.2858 31.1708L24.3576 29.5552H21.7073C21.51 29.5552 21.3396 29.5279 21.1961 29.4733C21.0616 29.4108 20.9495 29.3328 20.8598 29.2391C20.7701 29.1455 20.7028 29.044 20.658 28.9347C20.6221 28.8177 20.6041 28.7006 20.6041 28.5835C20.6041 28.4742 20.6221 28.3611 20.658 28.244C20.7028 28.1269 20.7701 28.0216 20.8598 27.9279C20.9495 27.8342 21.0616 27.7562 21.1961 27.6938C21.3396 27.6313 21.51 27.6001 21.7073 27.6001H25.8913C26.2501 27.6001 26.5505 27.682 26.7927 27.846C27.0438 28.0099 27.2187 28.2089 27.3174 28.443C27.425 28.6772 27.4519 28.9269 27.3981 29.1923C27.3443 29.4499 27.2053 29.6762 26.981 29.8713L25.0976 31.4986C25.4025 31.5299 25.703 31.6118 25.999 31.7445C26.3039 31.8772 26.573 32.0528 26.8062 32.2713C27.0483 32.4899 27.2411 32.7513 27.3846 33.0557C27.5282 33.3523 27.5999 33.684 27.5999 34.0508Z" fill="white"/>
</svg>
